<?xml version="1.0" standalone="no"?>
<!DOCTYPE svg PUBLIC "-//W3C//DTD SVG 20010904//EN"
 "http://www.w3.org/TR/2001/REC-SVG-20010904/DTD/svg10.dtd">
<svg version="1.0" xmlns="http://www.w3.org/2000/svg"
 width="512.000000pt" height="512.000000pt" viewBox="0 0 512.000000 512.000000"
 preserveAspectRatio="xMidYMid meet">

<g transform="translate(0.000000,512.000000) scale(0.100000,-0.100000)"
fill="#000000" stroke="none">
<path d="M2691 5109 c-418 -47 -832 -219 -1156 -480 -173 -139 -386 -377 -406
-454 -23 -85 10 -174 84 -223 34 -22 52 -27 106 -27 81 0 121 22 178 98 22 29
75 89 118 135 534 568 1377 722 2082 382 373 -179 654 -459 839 -835 329 -669
210 -1457 -304 -2016 -233 -253 -586 -453 -932 -527 -215 -47 -473 -53 -675
-17 -106 19 -165 14 -216 -19 -58 -39 -84 -89 -84 -166 0 -119 60 -178 205
-204 787 -142 1600 160 2100 781 269 333 438 748 479 1177 39 394 -37 810
-213 1171 -316 648 -932 1100 -1646 1210 -126 19 -442 27 -559 14z"/>
<path d="M2852 4309 c-45 -13 -108 -80 -121 -126 -6 -21 -11 -96 -12 -168 l0
-130 -72 -34 c-100 -47 -210 -158 -261 -261 -66 -135 -82 -276 -46 -414 26
-104 72 -187 146 -266 108 -114 235 -173 412 -190 107 -10 149 -30 190 -93 22
-34 27 -52 27 -106 0 -79 -25 -128 -88 -169 -34 -22 -52 -27 -106 -27 -81 0
-118 21 -176 97 -86 113 -214 129 -308 40 -44 -41 -60 -81 -60 -144 0 -47 6
-66 34 -113 49 -81 154 -177 238 -217 l69 -33 4 -150 c3 -137 5 -153 27 -188
13 -21 42 -50 64 -65 34 -23 52 -27 107 -27 55 0 73 4 107 27 22 15 51 44 64
65 22 35 24 51 28 188 l4 150 71 34 c99 48 209 159 260 261 66 135 82 276 46
414 -26 104 -72 187 -146 266 -109 115 -235 173 -413 190 -107 10 -153 33
-192 97 -36 57 -34 154 3 210 41 62 90 88 168 88 80 0 117 -21 175 -97 86
-113 214 -129 308 -40 44 41 60 81 60 144 0 47 -6 66 -34 113 -48 80 -153 176
-237 216 l-69 34 -4 150 c-4 137 -6 153 -28 188 -47 76 -151 113 -239 86z"/>
<path d="M452 3580 c-109 -29 -187 -74 -272 -160 -87 -86 -131 -163 -160 -276
-19 -75 -20 -115 -20 -1344 0 -1229 1 -1269 20 -1344 29 -113 73 -190 160
-276 86 -87 163 -131 276 -160 71 -19 112 -20 544 -20 432 0 473 1 544 20 113
29 190 73 276 160 87 86 131 163 160 276 19 75 20 115 20 1344 0 1229 -1 1269
-20 1344 -29 113 -73 190 -160 276 -86 87 -163 131 -276 160 -72 19 -111 20
-548 19 -431 0 -477 -2 -544 -19z m1051 -409 c21 -13 50 -42 65 -64 23 -34 27
-52 27 -107 0 -55 -4 -73 -27 -107 -15 -22 -44 -51 -65 -64 l-38 -24 -465 0
-465 0 -38 24 c-76 47 -111 140 -88 229 14 51 76 117 123 131 20 6 216 9 483
8 l450 -2 38 -24z m-1028 -756 c102 -21 948 -21 1050 0 38 8 72 15 73 15 2 0
2 -67 0 -148 -3 -142 -4 -150 -30 -189 -15 -22 -44 -51 -65 -64 l-38 -24 -465
0 -465 0 -38 24 c-21 13 -50 42 -65 64 -26 39 -27 47 -30 189 -2 81 -2 148 0
148 1 0 35 -7 73 -15z m0 -800 c102 -21 948 -21 1050 0 38 8 72 15 73 15 2 0
2 -67 0 -148 -3 -142 -4 -150 -30 -189 -15 -22 -44 -51 -65 -64 l-38 -24 -465
0 -465 0 -38 24 c-21 13 -50 42 -65 64 -26 39 -27 47 -30 189 -2 81 -2 148 0
148 1 0 35 -7 73 -15z m0 -800 c56 -12 161 -15 525 -15 364 0 469 3 525 15 38
8 72 15 73 15 2 0 2 -67 0 -148 -3 -142 -4 -150 -30 -189 -15 -22 -44 -51 -65
-64 l-38 -24 -465 0 -465 0 -38 24 c-21 13 -50 42 -65 64 -26 39 -27 47 -30
189 -2 81 -2 148 0 148 1 0 35 -7 73 -15z"/>
</g>
</svg>
