<?xml version="1.0" standalone="no"?>
<!DOCTYPE svg PUBLIC "-//W3C//DTD SVG 20010904//EN"
 "http://www.w3.org/TR/2001/REC-SVG-20010904/DTD/svg10.dtd">
<svg version="1.0" xmlns="http://www.w3.org/2000/svg"
 width="512.000000pt" height="512.000000pt" viewBox="0 0 512.000000 512.000000"
 preserveAspectRatio="xMidYMid meet">

<g transform="translate(0.000000,512.000000) scale(0.100000,-0.100000)"
fill="#000000" stroke="none">
<path d="M452 5100 c-109 -29 -187 -74 -272 -160 -87 -86 -131 -163 -160 -276
-20 -76 -20 -118 -20 -2104 0 -1986 0 -2028 20 -2104 29 -113 73 -190 160
-277 53 -54 96 -86 147 -112 140 -69 123 -68 1040 -65 l821 3 43 30 c117 83
117 247 0 330 l-43 30 -827 5 -827 5 -41 27 c-22 15 -51 44 -64 65 l-24 38 0
2025 0 2025 24 38 c13 21 42 50 64 65 l41 27 693 3 693 3 0 -534 c0 -499 1
-539 20 -611 29 -113 73 -190 160 -276 86 -87 163 -131 276 -160 72 -19 112
-20 611 -20 l533 0 0 -168 0 -168 -72 -12 c-162 -28 -354 -109 -521 -219 -93
-61 -299 -267 -360 -360 -111 -167 -178 -325 -219 -516 -31 -145 -31 -407 0
-554 58 -268 173 -489 357 -681 190 -200 413 -332 669 -397 392 -99 789 -29
1139 202 94 62 299 267 362 363 108 163 183 345 221 535 27 136 25 397 -4 532
-62 287 -178 499 -387 708 -171 171 -325 269 -539 340 -56 19 -134 40 -174 47
l-72 12 0 281 c0 168 -4 296 -11 320 -9 35 -125 154 -847 877 -723 722 -842
838 -877 847 -27 7 -303 11 -850 10 -765 0 -814 -1 -883 -19z m2412 -1578
c-236 -1 -380 2 -405 8 -51 14 -114 77 -128 127 -7 24 -11 178 -11 408 l0 370
455 -455 455 -455 -366 -3z m1091 -1151 c142 -35 337 -134 403 -203 l21 -24
-329 -329 -329 -329 -149 146 c-124 123 -155 148 -192 158 -159 43 -293 -91
-250 -250 10 -39 40 -73 234 -268 121 -123 235 -232 252 -243 42 -26 109 -34
164 -19 40 11 85 52 446 412 l401 400 25 -64 c47 -116 63 -211 63 -363 -1
-169 -23 -272 -89 -411 -57 -121 -115 -204 -201 -289 -367 -368 -946 -393
-1349 -58 -160 132 -284 336 -332 548 -27 116 -26 330 3 445 86 341 332 609
660 719 162 54 383 63 548 22z"/>
<path d="M892 3509 c-47 -14 -109 -80 -123 -131 -23 -89 12 -182 88 -229 38
-24 41 -24 304 -24 l265 0 41 27 c62 41 88 90 88 168 0 78 -26 127 -88 168
l-40 27 -251 2 c-141 1 -265 -2 -284 -8z"/>
<path d="M892 2749 c-47 -14 -109 -80 -123 -131 -23 -89 12 -182 88 -229 l38
-24 465 0 465 0 38 24 c21 13 50 42 65 64 23 34 27 52 27 107 0 55 -4 73 -27
107 -15 22 -44 51 -65 64 l-38 24 -450 2 c-267 1 -463 -2 -483 -8z"/>
<path d="M892 1989 c-47 -14 -109 -80 -123 -131 -23 -89 12 -182 88 -229 l38
-24 465 0 465 0 38 24 c21 13 50 42 65 64 23 34 27 52 27 107 0 55 -4 73 -27
107 -15 22 -44 51 -65 64 l-38 24 -450 2 c-267 1 -463 -2 -483 -8z"/>
<path d="M892 1189 c-47 -14 -109 -80 -123 -131 -23 -89 12 -182 88 -229 l38
-24 465 0 465 0 38 24 c21 13 50 42 65 64 23 34 27 52 27 107 0 55 -4 73 -27
107 -15 22 -44 51 -65 64 l-38 24 -450 2 c-267 1 -463 -2 -483 -8z"/>
</g>
</svg>
