<?xml version="1.0" standalone="no"?>
<!DOCTYPE svg PUBLIC "-//W3C//DTD SVG 20010904//EN"
 "http://www.w3.org/TR/2001/REC-SVG-20010904/DTD/svg10.dtd">
<svg version="1.0" xmlns="http://www.w3.org/2000/svg"
 width="512.000000pt" height="512.000000pt" viewBox="0 0 512.000000 512.000000"
 preserveAspectRatio="xMidYMid meet">

<g transform="translate(0.000000,512.000000) scale(0.100000,-0.100000)"
fill="#000000" stroke="none">
<path d="M2492 5109 c-45 -13 -108 -80 -121 -126 -6 -21 -11 -96 -12 -168 l0
-130 -72 -34 c-99 -47 -211 -158 -258 -258 l-34 -72 -930 -3 -930 -3 -38 -24
c-21 -13 -50 -42 -65 -64 -23 -34 -27 -52 -27 -107 0 -55 4 -73 27 -107 15
-22 44 -51 65 -64 37 -23 46 -24 271 -27 l232 -3 0 -599 0 -599 -233 -3 -234
-3 -40 -27 c-22 -15 -51 -44 -64 -65 -23 -37 -24 -45 -24 -233 0 -204 5 -240
55 -372 66 -178 260 -372 438 -438 119 -45 173 -55 302 -55 129 0 183 10 302
55 178 66 372 260 438 438 50 132 55 168 55 372 0 188 -1 196 -24 233 -13 21
-42 50 -64 65 l-40 27 -234 3 -233 3 0 600 0 599 498 -1 497 0 34 -72 c47
-100 158 -211 258 -258 l72 -34 0 -1177 1 -1178 -339 0 c-359 0 -445 -8 -574
-51 -397 -134 -678 -509 -681 -909 -1 -94 2 -109 23 -143 13 -21 42 -50 64
-65 l41 -27 1666 0 1666 0 41 27 c87 57 109 151 79 326 -70 403 -353 710 -751
814 -73 19 -114 22 -457 25 l-378 4 1 1177 0 1177 72 34 c100 47 211 158 258
258 l34 72 498 0 497 1 0 -599 0 -600 -233 -3 -234 -3 -40 -27 c-22 -15 -51
-44 -64 -65 -23 -37 -24 -45 -24 -233 0 -204 5 -240 55 -372 66 -178 260 -372
438 -438 119 -45 173 -55 302 -55 129 0 183 10 302 55 178 66 372 260 438 438
50 132 55 168 55 373 0 195 0 195 -27 236 -15 22 -44 51 -65 64 -37 23 -46 24
-270 27 l-233 3 0 599 0 599 233 3 c224 3 233 4 270 27 21 13 50 42 65 64 23
34 27 52 27 107 0 55 -4 73 -27 107 -15 22 -44 51 -65 64 l-38 24 -930 3 -930
3 -34 72 c-47 99 -159 211 -257 258 l-71 34 -4 151 c-4 143 -5 152 -31 191
-15 22 -43 50 -62 62 -41 26 -125 35 -174 20z m178 -823 c59 -39 85 -89 85
-166 0 -78 -26 -127 -88 -168 -56 -37 -153 -39 -210 -3 -76 47 -111 140 -88
229 14 51 75 117 123 131 53 16 135 6 178 -23z m-1474 -2018 c-9 -71 -55 -167
-107 -222 -26 -29 -70 -60 -117 -84 -72 -35 -81 -37 -172 -37 -91 0 -100 2
-172 37 -47 24 -91 55 -117 84 -52 55 -98 151 -107 222 l-7 52 403 0 403 0 -7
-52z m3520 0 c-9 -71 -55 -167 -107 -222 -26 -29 -70 -60 -117 -84 -72 -35
-81 -37 -172 -37 -91 0 -100 2 -172 37 -47 24 -91 55 -117 84 -52 55 -98 151
-107 222 l-7 52 403 0 403 0 -7 -52z m-1231 -1483 c114 -24 209 -77 295 -164
67 -68 140 -177 140 -210 0 -8 -370 -11 -1360 -11 -990 0 -1360 3 -1360 11 0
33 73 142 140 210 85 86 181 140 290 163 99 22 1754 22 1855 1z"/>
</g>
</svg>
